<svg xmlns="http://www.w3.org/2000/svg" width="262.205" height="372.047"><defs><linearGradient id="a"><stop offset="0"/><stop offset="1" stop-opacity="0"/></linearGradient></defs><g transform="translate(5119.009 -2008.775)"><rect y="2215.868" x="-5031.365" rx="14.241" height="89.572" width="28.482" fill="#a4c639"/><path d="M-5049.635 2142.42c-.047.54-.088 1.086-.088 1.638v92.557c0 9.954 7.879 17.973 17.66 17.973h94.124c9.782 0 17.66-8.019 17.66-17.973v-92.557c0-.552-.018-1.099-.065-1.638h-129.291z" fill="#a4c639"/><rect y="2215.868" x="-4967.117" rx="14.241" height="89.572" width="28.482" fill="#a4c639"/><rect y="2150.658" x="-5086.846" rx="14.241" height="89.572" width="28.482" fill="#a4c639"/><rect y="2150.658" x="-4911.636" rx="14.241" height="89.572" width="28.482" fill="#a4c639"/><path d="M-5049.219 2136.34c.397-28.43 25.21-51.74 57.063-54.813h14.312c31.853 3.073 56.666 26.384 57.063 54.813h-128.438z" fill="#a4c639"/><path d="M-5044.266 2078.785l15.022 26.02M-4925.734 2078.785l-15.023 26.02" fill="none" stroke="#a4c639" stroke-width="3" stroke-linecap="round" stroke-linejoin="round"/><path d="M-5004.131 2110.862a7.367 7.196 0 1 1-14.734 0 7.367 7.196 0 1 1 14.734 0zM-4949.135 2110.862a7.367 7.196 0 1 1-14.734 0 7.367 7.196 0 1 1 14.734 0z" fill="#fff"/></g></svg>