<svg xmlns="http://www.w3.org/2000/svg" viewBox="0 0 1000 1000"><path d="M669.32 14.07c-48.28 14.37-87.75 36.02-115.92 64.19-33.15 32.96-48.86 72.62-50.97 128.18l-1.15 27.4 8.43-1.34c39.09-5.94 85.07-24.91 115.15-47.33 42.92-31.61 63.8-72.81 66.1-129.91.96-24.72-.96-44.26-4.22-45.22-1.13-.37-8.8 1.54-17.42 4.03zM648.24 247.64c-20.31 3.26-37.74 8.62-63.42 19.54-74.15 31.42-84.69 31.61-151.94 4.02-45.22-18.59-74.92-24.14-110.94-20.5-54.99 5.56-93.31 24.14-134.31 65.15-41.58 41.58-68.98 92.35-80.67 149.26-4.98 24.33-6.9 86.22-3.83 118.22 8.24 80.67 32.38 161.33 69.36 232.41 50.58 96.95 114 160.95 171.29 172.63 22.61 4.6 45.03 0 99.63-21.08 32.19-12.46 51.35-17.44 73-18.58 25.29-1.34 39.85 1.92 83.16 18.58 68.59 26.82 91.39 28.74 122.44 11.12 13.41-7.67 53.07-39.47 67.83-54.42 26.83-27.02 57.48-76.45 84.69-136.8 12.84-28.36 24.72-57.48 23.76-58.25-.38-.19-6.51-3.26-13.6-6.71-26.25-12.65-59.78-42.15-77.6-68.4-16.48-24.13-30.85-58.43-38.13-91.01-2.3-9.58-3.26-22.99-3.45-41 0-23.18.58-29.31 4.98-45.03 6.51-23.57 14.56-41 27.97-61.31 12.26-18.59 43.11-51.16 59.78-63.42 9.58-6.9 10.92-8.62 9.39-11.69-3.64-6.9-37.17-39.28-51.54-50.01-27.97-20.5-56.52-33.15-90.63-39.85-25.1-4.79-57.67-6.13-77.22-2.87z"/></svg>